<svg xmlns="http://www.w3.org/2000/svg" viewBox="60 50 680 680" width="1200" height="1200"><g opacity="1" transform="translate(225 400) scale(0.62) translate(-400 -400)"><rect x="160" y="250" width="480" height="300" rx="22" fill="#ffffff" fill-opacity="0.03" stroke="#ffffff" stroke-opacity="0.55" stroke-width="2"/><rect x="190" y="290" width="130" height="160" rx="12" fill="none" stroke="#ffffff" stroke-opacity="0.35" stroke-width="2"/><circle cx="255" cy="350" r="28" fill="none" stroke="#ffffff" stroke-opacity="0.5" stroke-width="2"/><path d="M207 440 C215 400 295 400 303 440" fill="none" stroke="#ffffff" stroke-opacity="0.5" stroke-width="2"/><line x1="350" y1="302" x2="580" y2="302" stroke="#b9d6f2" stroke-opacity="0.52" stroke-width="7" stroke-linecap="round"/><rect x="340" y="290" width="250" height="24" rx="6" fill="#0353a4" fill-opacity="0.12" stroke="#0353a4" stroke-opacity="0.5" stroke-width="1.5"/><line x1="350" y1="336" x2="520" y2="336" stroke="#b9d6f2" stroke-opacity="0.52" stroke-width="7" stroke-linecap="round"/><rect x="340" y="324" width="190" height="24" rx="6" fill="#0353a4" fill-opacity="0.12" stroke="#0353a4" stroke-opacity="0.5" stroke-width="1.5"/><line x1="350" y1="370" x2="555" y2="370" stroke="#b9d6f2" stroke-opacity="0.52" stroke-width="7" stroke-linecap="round"/><rect x="340" y="358" width="225" height="24" rx="6" fill="#0353a4" fill-opacity="0.12" stroke="#0353a4" stroke-opacity="0.5" stroke-width="1.5"/><line x1="350" y1="404" x2="490" y2="404" stroke="#b9d6f2" stroke-opacity="0.52" stroke-width="7" stroke-linecap="round"/><rect x="340" y="392" width="160" height="24" rx="6" fill="#0353a4" fill-opacity="0.12" stroke="#0353a4" stroke-opacity="0.5" stroke-width="1.5"/><line x1="350" y1="438" x2="535" y2="438" stroke="#b9d6f2" stroke-opacity="0.52" stroke-width="7" stroke-linecap="round"/><rect x="340" y="426" width="205" height="24" rx="6" fill="#0353a4" fill-opacity="0.12" stroke="#0353a4" stroke-opacity="0.5" stroke-width="1.5"/><line x1="192" y1="500" x2="202" y2="500" stroke="#b9d6f2" stroke-opacity="0.8" stroke-width="3" stroke-linecap="round"/><line x1="211.5" y1="500" x2="221.5" y2="500" stroke="#b9d6f2" stroke-opacity="0.8" stroke-width="3" stroke-linecap="round"/><line x1="231" y1="500" x2="241" y2="500" stroke="#b9d6f2" stroke-opacity="0.8" stroke-width="3" stroke-linecap="round"/><line x1="250.5" y1="500" x2="260.5" y2="500" stroke="#b9d6f2" stroke-opacity="0.8" stroke-width="3" stroke-linecap="round"/><line x1="270" y1="500" x2="280" y2="500" stroke="#b9d6f2" stroke-opacity="0.8" stroke-width="3" stroke-linecap="round"/><line x1="289.5" y1="500" x2="299.5" y2="500" stroke="#b9d6f2" stroke-opacity="0.8" stroke-width="3" stroke-linecap="round"/><line x1="309" y1="500" x2="319" y2="500" stroke="#b9d6f2" stroke-opacity="0.8" stroke-width="3" stroke-linecap="round"/><line x1="328.5" y1="500" x2="338.5" y2="500" stroke="#b9d6f2" stroke-opacity="0.8" stroke-width="3" stroke-linecap="round"/><line x1="348" y1="500" x2="358" y2="500" stroke="#b9d6f2" stroke-opacity="0.8" stroke-width="3" stroke-linecap="round"/><line x1="367.5" y1="500" x2="377.5" y2="500" stroke="#b9d6f2" stroke-opacity="0.8" stroke-width="3" stroke-linecap="round"/><line x1="387" y1="500" x2="397" y2="500" stroke="#b9d6f2" stroke-opacity="0.8" stroke-width="3" stroke-linecap="round"/><line x1="406.5" y1="500" x2="416.5" y2="500" stroke="#b9d6f2" stroke-opacity="0.8" stroke-width="3" stroke-linecap="round"/><line x1="426" y1="500" x2="436" y2="500" stroke="#b9d6f2" stroke-opacity="0.8" stroke-width="3" stroke-linecap="round"/><line x1="445.5" y1="500" x2="455.5" y2="500" stroke="#b9d6f2" stroke-opacity="0.8" stroke-width="3" stroke-linecap="round"/><line x1="465" y1="500" x2="475" y2="500" stroke="#b9d6f2" stroke-opacity="0.8" stroke-width="3" stroke-linecap="round"/><line x1="484.5" y1="500" x2="494.5" y2="500" stroke="#b9d6f2" stroke-opacity="0.8" stroke-width="3" stroke-linecap="round"/><line x1="504" y1="500" x2="514" y2="500" stroke="#b9d6f2" stroke-opacity="0.8" stroke-width="3" stroke-linecap="round"/><line x1="523.5" y1="500" x2="533.5" y2="500" stroke="#b9d6f2" stroke-opacity="0.8" stroke-width="3" stroke-linecap="round"/><line x1="543" y1="500" x2="553" y2="500" stroke="#b9d6f2" stroke-opacity="0.8" stroke-width="3" stroke-linecap="round"/><line x1="562.5" y1="500" x2="572.5" y2="500" stroke="#b9d6f2" stroke-opacity="0.8" stroke-width="3" stroke-linecap="round"/><line x1="582" y1="500" x2="592" y2="500" stroke="#b9d6f2" stroke-opacity="0.8" stroke-width="3" stroke-linecap="round"/><line x1="601.5" y1="500" x2="611.5" y2="500" stroke="#b9d6f2" stroke-opacity="0.8" stroke-width="3" stroke-linecap="round"/><line x1="192" y1="522" x2="202" y2="522" stroke="#b9d6f2" stroke-opacity="0.8" stroke-width="3" stroke-linecap="round"/><line x1="211.5" y1="522" x2="221.5" y2="522" stroke="#b9d6f2" stroke-opacity="0.8" stroke-width="3" stroke-linecap="round"/><line x1="231" y1="522" x2="241" y2="522" stroke="#b9d6f2" stroke-opacity="0.8" stroke-width="3" stroke-linecap="round"/><line x1="250.5" y1="522" x2="260.5" y2="522" stroke="#b9d6f2" stroke-opacity="0.8" stroke-width="3" stroke-linecap="round"/><line x1="270" y1="522" x2="280" y2="522" stroke="#b9d6f2" stroke-opacity="0.8" stroke-width="3" stroke-linecap="round"/><line x1="289.5" y1="522" x2="299.5" y2="522" stroke="#b9d6f2" stroke-opacity="0.8" stroke-width="3" stroke-linecap="round"/><line x1="309" y1="522" x2="319" y2="522" stroke="#b9d6f2" stroke-opacity="0.8" stroke-width="3" stroke-linecap="round"/><line x1="328.5" y1="522" x2="338.5" y2="522" stroke="#b9d6f2" stroke-opacity="0.8" stroke-width="3" stroke-linecap="round"/><line x1="348" y1="522" x2="358" y2="522" stroke="#b9d6f2" stroke-opacity="0.8" stroke-width="3" stroke-linecap="round"/><line x1="367.5" y1="522" x2="377.5" y2="522" stroke="#b9d6f2" stroke-opacity="0.8" stroke-width="3" stroke-linecap="round"/><line x1="387" y1="522" x2="397" y2="522" stroke="#b9d6f2" stroke-opacity="0.8" stroke-width="3" stroke-linecap="round"/><line x1="406.5" y1="522" x2="416.5" y2="522" stroke="#b9d6f2" stroke-opacity="0.8" stroke-width="3" stroke-linecap="round"/><line x1="426" y1="522" x2="436" y2="522" stroke="#b9d6f2" stroke-opacity="0.8" stroke-width="3" stroke-linecap="round"/><line x1="445.5" y1="522" x2="455.5" y2="522" stroke="#b9d6f2" stroke-opacity="0.8" stroke-width="3" stroke-linecap="round"/><line x1="465" y1="522" x2="475" y2="522" stroke="#b9d6f2" stroke-opacity="0.8" stroke-width="3" stroke-linecap="round"/><line x1="484.5" y1="522" x2="494.5" y2="522" stroke="#b9d6f2" stroke-opacity="0.8" stroke-width="3" stroke-linecap="round"/><line x1="504" y1="522" x2="514" y2="522" stroke="#b9d6f2" stroke-opacity="0.8" stroke-width="3" stroke-linecap="round"/><line x1="523.5" y1="522" x2="533.5" y2="522" stroke="#b9d6f2" stroke-opacity="0.8" stroke-width="3" stroke-linecap="round"/><line x1="543" y1="522" x2="553" y2="522" stroke="#b9d6f2" stroke-opacity="0.8" stroke-width="3" stroke-linecap="round"/><line x1="562.5" y1="522" x2="572.5" y2="522" stroke="#b9d6f2" stroke-opacity="0.8" stroke-width="3" stroke-linecap="round"/><line x1="582" y1="522" x2="592" y2="522" stroke="#b9d6f2" stroke-opacity="0.8" stroke-width="3" stroke-linecap="round"/><line x1="601.5" y1="522" x2="611.5" y2="522" stroke="#b9d6f2" stroke-opacity="0.8" stroke-width="3" stroke-linecap="round"/><path d="M180 298 L180 280 L198 280" fill="none" stroke="#b9d6f2" stroke-opacity="0" stroke-width="3" stroke-linecap="round"/><path d="M330 298 L330 280 L312 280" fill="none" stroke="#b9d6f2" stroke-opacity="0" stroke-width="3" stroke-linecap="round"/><path d="M180 442 L180 460 L198 460" fill="none" stroke="#b9d6f2" stroke-opacity="0" stroke-width="3" stroke-linecap="round"/><path d="M330 442 L330 460 L312 460" fill="none" stroke="#b9d6f2" stroke-opacity="0" stroke-width="3" stroke-linecap="round"/><circle cx="244" cy="344" r="2.6" fill="#b9d6f2" fill-opacity="0"/><circle cx="266" cy="344" r="2.6" fill="#b9d6f2" fill-opacity="0"/><circle cx="255" cy="356" r="2.6" fill="#b9d6f2" fill-opacity="0"/><circle cx="247" cy="366" r="2.6" fill="#b9d6f2" fill-opacity="0"/><circle cx="263" cy="366" r="2.6" fill="#b9d6f2" fill-opacity="0"/></g><g opacity="1"><rect x="430" y="250" width="280" height="46" rx="10" fill="#ffffff" fill-opacity="0.03" stroke="#ffffff" stroke-opacity="0.3" stroke-width="1.5"/><line x1="452" y1="273" x2="572" y2="273" stroke="#ffffff" stroke-opacity="0.35" stroke-width="6" stroke-linecap="round"/><circle cx="680" cy="273" r="9" fill="none" stroke="#b9d6f2" stroke-opacity="1" stroke-width="2"/><path d="M675 273 l3.5 3.5 l6 -7" fill="none" stroke="#b9d6f2" stroke-width="2.2" stroke-linecap="round" stroke-linejoin="round" opacity="1"/></g><g opacity="1"><rect x="430" y="314" width="280" height="46" rx="10" fill="#ffffff" fill-opacity="0.03" stroke="#ffffff" stroke-opacity="0.3" stroke-width="1.5"/><line x1="452" y1="337" x2="602" y2="337" stroke="#ffffff" stroke-opacity="0.35" stroke-width="6" stroke-linecap="round"/><circle cx="680" cy="337" r="9" fill="none" stroke="#b9d6f2" stroke-opacity="1" stroke-width="2"/><path d="M675 337 l3.5 3.5 l6 -7" fill="none" stroke="#b9d6f2" stroke-width="2.2" stroke-linecap="round" stroke-linejoin="round" opacity="1"/></g><g opacity="1"><rect x="430" y="378" width="280" height="46" rx="10" fill="#ffffff" fill-opacity="0.03" stroke="#ffffff" stroke-opacity="0.3" stroke-width="1.5"/><line x1="452" y1="401" x2="552" y2="401" stroke="#ffffff" stroke-opacity="0.35" stroke-width="6" stroke-linecap="round"/><circle cx="680" cy="401" r="9" fill="none" stroke="#ffffff" stroke-opacity="0.35" stroke-width="2"/></g><g opacity="1"><rect x="430" y="442" width="280" height="46" rx="10" fill="#ffffff" fill-opacity="0.03" stroke="#ffffff" stroke-opacity="0.3" stroke-width="1.5"/><line x1="452" y1="465" x2="587" y2="465" stroke="#ffffff" stroke-opacity="0.35" stroke-width="6" stroke-linecap="round"/><circle cx="680" cy="465" r="9" fill="none" stroke="#ffffff" stroke-opacity="0.35" stroke-width="2"/></g><g opacity="0.79"><rect x="438.56" y="506" width="280" height="46" rx="10" fill="#ffffff" fill-opacity="0.03" stroke="#ffffff" stroke-opacity="0.3" stroke-width="1.5"/><line x1="460.56" y1="529" x2="570.56" y2="529" stroke="#ffffff" stroke-opacity="0.35" stroke-width="6" stroke-linecap="round"/><circle cx="688.56" cy="529" r="9" fill="none" stroke="#ffffff" stroke-opacity="0.35" stroke-width="2"/></g><line x1="375" y1="400" x2="425" y2="400" stroke="#b9d6f2" stroke-opacity="0.5" stroke-width="1.5" stroke-dasharray="4 6"/></svg>
